999
The file was created in CADSoftTools software
999
ABViewer 16; 
  0
SECTION
  2
HEADER
  9
$ACADVER
  1
AC1018
  9
$DWGCODEPAGE
  3
ANSI_1252
  9
$CLAYER
  8
0
  9
$CELTYPE
  6
ByLayer
  9
$CELTSCALE
 40
1
  9
$CELWEIGHT
370
-1
  9
$DIMALT
 70
0
  9
$DIMALTF
 40
0.0393700787
  9
$DIMPOST
  1

  9
$DIMAPOST
  1

  9
$DIMSCALE
 40
1
  9
$DIMASZ
 40
3.556
  9
$DIMCLRD
 70
0
  9
$DIMCLRE
 70
0
  9
$DIMCLRT
 70
0
  9
$DIMEXE
 40
1
  9
$DIMEXO
 40
0
  9
$DIMGAP
 40
1.524
  9
$DIMLFAC
 40
1
  9
$DIMDEC
 70
2
  9
$DIMFRAC
 70
0
  9
$DIMTAD
 70
1
  9
$DIMCEN
 40
0.09
  9
$DIMTIH
 70
1
  9
$DIMTIX
 70
0
  9
$DIMTOH
 70
1
  9
$DIMSE1
 70
0
  9
$DIMSE2
 70
0
  9
$DIMSD1
 70
0
  9
$DIMSD2
 70
0
  9
$DIMLWD
 70
-2
  9
$DIMLWE
 70
-2
  9
$DIMSAH
 70
0
  9
$DIMBLK
  1

  9
$DIMBLK1
  1

  9
$DIMBLK2
  1

  9
$DIMLDRBLK
  1

  9
$DIMSTYLE
  2
ISO-25
  9
$DIMTP
 40
0
  9
$DIMTM
 40
0
  9
$DIMTXT
 40
3.5
  9
$DIMLUNIT
 70
2
  9
$DIMDSEP
 70
44
  9
$DIMTXSTY
  7
Standard
  9
$TEXTSIZE
 40
3.5
  9
$TEXTSTYLE
  7
Standard
  9
$HANDSEED
  5
00000000000002C9
  9
$FILLETRAD
 40
10
  9
$INSUNITS
 70
4
  9
$EXTMIN
 10
-210.5056530208
 20
-225.333333784333
  9
$EXTMAX
 10
399.532879708376
 20
219.9962810782
  9
$LIMMIN
 10
0
 20
0
  9
$LIMMAX
 10
420
 20
297
  9
$FILLMODE
 70
1
  9
$LTSCALE
 40
1
  9
$MEASUREMENT
 70
1
  9
$ATTMODE
 70
1
  9
$PDMODE
 70
0
  9
$PDSIZE
 40
-1
  9
$TILEMODE
 70
1
  9
$UCSORG
 10
0
 20
0
 30
0
  9
$UCSXDIR
 10
1
 20
0
 30
0
  9
$UCSYDIR
 10
0
 20
1
 30
0
  9
$INSBASE
 10
0
 20
0
 30
0
  9
$XCLIPFRAME
290
1
  9
$DIMASSOC
280
2
  9
$LWDISPLAY
290
1
  9
$TDCREATE
 40
2461070.38402192
  9
$TDINDWG
 40
1.15740740740741E-8
  9
$TDUPDATE
 40
2461082.51663279
  0
ENDSEC
  0
SECTION
  2
CLASSES
  0
CLASS
  1
IMAGE
  2
AcDbRasterImage
  3
ISM
 90
2175
 91
1
280
0
281
1
  0
CLASS
  1
IMAGEDEF
  2
AcDbRasterImageDef
  3
ISM
 90
0
 91
1
280
0
281
0
  0
CLASS
  1
IMAGEDEF_REACTOR
  2
AcDbRasterImageDefReactor
  3
ISM
 90
1
 91
1
280
0
281
0
  0
CLASS
  1
WIPEOUT
  2
AcDbWipeout
  3
"WipeOut"
 90
2175
 91
1
280
0
281
1
  0
CLASS
  1
WIPEOUTVARIABLES
  2
AcDbWipeoutVariables
  3
"WipeOut"
 90
0
 91
1
280
0
281
0
  0
CLASS
  1
MPOLYGON
  2
AcDbMPolygon
  3
"AcMPolygonObj15"
 90
3071
 91
1
280
0
281
1
  0
ENDSEC
  0
SECTION
  2
TABLES
  0
TABLE
  2
APPID
  5
2B0
100
AcDbSymbolTable
  0
APPID
  5
12
100
AcDbSymbolTableRecord
100
AcDbRegAppTableRecord
  2
ACAD
 70
0
  0
APPID
  5
11A
100
AcDbSymbolTableRecord
100
AcDbRegAppTableRecord
  2
CSTINVENTORY
 70
0
  0
APPID
  5
146
100
AcDbSymbolTableRecord
100
AcDbRegAppTableRecord
  2
AcDbAttr
 70
0
  0
APPID
  5
147
100
AcDbSymbolTableRecord
100
AcDbRegAppTableRecord
  2
PE_URL
 70
0
  0
ENDTAB
  0
TABLE
  2
BLOCK_RECORD
  5
2B1
100
AcDbSymbolTable
  0
BLOCK_RECORD
  5
1F
100
AcDbSymbolTableRecord
100
AcDbBlockTableRecord
  2
*MODEL_SPACE
  0
BLOCK_RECORD
  5
1B
100
AcDbSymbolTableRecord
100
AcDbBlockTableRecord
  2
*PAPER_SPACE
  0
BLOCK_RECORD
  5
85
100
AcDbSymbolTableRecord
100
AcDbBlockTableRecord
  2
_CLOSEDFILLED
  0
BLOCK_RECORD
  5
121
100
AcDbSymbolTableRecord
100
AcDbBlockTableRecord
  2
ABViewer_RedLine
  0
BLOCK_RECORD
  5
2AF
100
AcDbSymbolTableRecord
100
AcDbBlockTableRecord
  2
ABViewer
  0
ENDTAB
  0
TABLE
  2
STYLE
  5
3
100
AcDbSymbolTable
  0
STYLE
  5
11
100
AcDbSymbolTableRecord
100
AcDbTextStyleTableRecord
  2
Standard
 70
0
 40
0
 41
1
 50
0
 71
0
 42
3.5
  3
txt
  4

1001
ACAD
1000

1071
0
  0
STYLE
  5
7D
100
AcDbSymbolTableRecord
100
AcDbTextStyleTableRecord
  2
SLDTEXTSTYLE0
 70
0
 40
0
 41
0.699999988079071
 50
0
 71
0
 42
3.5
  3
TXT
  4

1001
ACAD
1000

1071
0
  0
ENDTAB
  0
TABLE
  2
LTYPE
  5
5
100
AcDbSymbolTable
  0
LTYPE
  5
16
100
AcDbSymbolTableRecord
100
AcDbLinetypeTableRecord
  2
CONTINUOUS
 70
0
  3

 72
65
 73
0
 40
0
  0
LTYPE
  5
14
100
AcDbSymbolTableRecord
100
AcDbLinetypeTableRecord
  2
BYBLOCK
 70
0
  3

 72
65
 73
0
 40
0
  0
LTYPE
  5
15
100
AcDbSymbolTableRecord
100
AcDbLinetypeTableRecord
  2
BYLAYER
 70
0
  3

 72
65
 73
0
 40
0
  0
LTYPE
  5
6E
100
AcDbSymbolTableRecord
100
AcDbLinetypeTableRecord
  2
HIDDEN
 70
0
  3
_ 
 72
65
 73
2
 40
1.905
 49
1.27
 74
0
 49
-0.635
 74
0
  0
LTYPE
  5
6F
100
AcDbSymbolTableRecord
100
AcDbLinetypeTableRecord
  2
PHANTOM
 70
0
  3
_ _ _ 
 72
65
 73
6
 40
12.7
 49
6.35
 74
0
 49
-1.27
 74
0
 49
1.27
 74
0
 49
-1.27
 74
0
 49
1.27
 74
0
 49
-1.27
 74
0
  0
LTYPE
  5
70
100
AcDbSymbolTableRecord
100
AcDbLinetypeTableRecord
  2
CENTER
 70
0
  3
_ _ 
 72
65
 73
4
 40
10.16
 49
6.35
 74
0
 49
-1.27
 74
0
 49
1.27
 74
0
 49
-1.27
 74
0
  0
LTYPE
  5
71
100
AcDbSymbolTableRecord
100
AcDbLinetypeTableRecord
  2
CENTERX2
 70
0
  3
_ _ 
 72
65
 73
4
 40
20.32
 49
12.7
 74
0
 49
-2.54
 74
0
 49
2.54
 74
0
 49
-2.54
 74
0
  0
LTYPE
  5
72
100
AcDbSymbolTableRecord
100
AcDbLinetypeTableRecord
  2
DOT2
 70
0
  3
. 
 72
65
 73
2
 40
0.635
 49
0
 74
0
 49
-0.635
 74
0
  0
LTYPE
  5
122
100
AcDbSymbolTableRecord
100
AcDbLinetypeTableRecord
  2
ISO dash
 70
0
  3
_ 
 72
65
 73
2
 40
1.5
 49
1.2
 74
0
 49
-0.3
 74
0
  0
LTYPE
  5
123
100
AcDbSymbolTableRecord
100
AcDbLinetypeTableRecord
  2
ISO dot
 70
0
  3
. 
 72
65
 73
2
 40
0.3
 49
0
 74
0
 49
-0.3
 74
0
  0
LTYPE
  5
124
100
AcDbSymbolTableRecord
100
AcDbLinetypeTableRecord
  2
ISO dash dot
 70
0
  3
_ . 
 72
65
 73
4
 40
1.8
 49
1.2
 74
0
 49
-0.3
 74
0
 49
0
 74
0
 49
-0.3
 74
0
  0
LTYPE
  5
125
100
AcDbSymbolTableRecord
100
AcDbLinetypeTableRecord
  2
ISO dash double-dot
 70
0
  3
_ . . 
 72
65
 73
6
 40
2.1
 49
1.2
 74
0
 49
-0.3
 74
0
 49
0
 74
0
 49
-0.3
 74
0
 49
0
 74
0
 49
-0.3
 74
0
  0
LTYPE
  5
126
100
AcDbSymbolTableRecord
100
AcDbLinetypeTableRecord
  2
ISO dash triple-dot
 70
0
  3
_ . . . 
 72
65
 73
8
 40
2.4
 49
1.2
 74
0
 49
-0.3
 74
0
 49
0
 74
0
 49
-0.3
 74
0
 49
0
 74
0
 49
-0.3
 74
0
 49
0
 74
0
 49
-0.3
 74
0
  0
LTYPE
  5
127
100
AcDbSymbolTableRecord
100
AcDbLinetypeTableRecord
  2
ISO dash long gaps
 70
0
  3
_ 
 72
65
 73
2
 40
3
 49
1.2
 74
0
 49
-1.8
 74
0
  0
ENDTAB
  0
TABLE
  2
LAYER
  5
2
100
AcDbSymbolTable
  0
LAYER
  5
10
100
AcDbSymbolTableRecord
100
AcDbLayerTableRecord
  2
0
 70
0
 62
7
  6
CONTINUOUS
290
1
370
-3
390
0
  0
ENDTAB
  0
TABLE
  2
VPORT
  5
2B2
100
AcDbSymbolTable
  0
VPORT
  5
2B3
100
AcDbSymbolTableRecord
100
AcDbViewportTableRecord
  2
*ACTIVE
 70
0
 10
0
 20
0
 11
1
 21
1
 12
-35.8821027585888
 22
71.2591275492621
 32
0
 13
0
 23
0
 14
10
 24
10
 15
10
 25
10
 16
0
 26
0
 36
1
 17
0
 27
0
 37
0
 40
876.562199578674
 41
2.43410852713178
 42
50
 43
0
 44
0
 50
0
 51
0
 71
0
 72
100
 73
1
 74
3
 75
0
 76
0
 77
0
 78
0
  0
ENDTAB
  0
TABLE
  2
VIEW
  5
2B4
100
AcDbSymbolTable
  0
ENDTAB
  0
TABLE
  2
UCS
  5
2B5
100
AcDbSymbolTable
  0
ENDTAB
  0
TABLE
  2
DIMSTYLE
  5
A
100
AcDbSymbolTable
 70
2
100
AcDbDimStyleTable
 71
0
  0
DIMSTYLE
105
27
100
AcDbSymbolTableRecord
100
AcDbDimStyleTableRecord
  2
ISO-25
 70
0
  3

 40
1
 41
2.5
 42
0.625
 44
1.25
 47
0
 48
0
 73
0
 74
0
 75
0
 76
0
 77
1
140
2.5
141
2.5
144
1
147
0.625
173
0
174
0
176
0
177
0
178
0
277
2
278
44
281
0
282
0
271
2
276
0
340
11
371
-1
372
-1
  0
DIMSTYLE
105
119
100
AcDbSymbolTableRecord
100
AcDbDimStyleTableRecord
  2
STANDARD
 70
0
  3

 40
1
 41
0.18
 42
0.0625
 44
0.18
 47
0
 48
0
 73
1
 74
1
 75
0
 76
0
 77
0
140
0.18
141
0.09
144
1
147
0.0625
173
0
174
0
176
0
177
0
178
0
277
2
278
46
281
0
282
0
271
4
276
0
371
-1
372
-1
  0
ENDTAB
  0
ENDSEC
  0
SECTION
  2
BLOCKS
  0
BLOCK
  5
2B6
100
AcDbEntity
  8
0
100
AcDbBlockBegin
  2
*MODEL_SPACE
 70
0
 10
0
 20
0
  0
ENDBLK
  5
2B7
100
AcDbEntity
  8
0
100
AcDbBlockEnd
  0
BLOCK
  5
2B8
100
AcDbEntity
  8
0
100
AcDbBlockBegin
  2
*PAPER_SPACE
 70
0
 10
0
 20
0
  0
ENDBLK
  5
2B9
100
AcDbEntity
  8
0
100
AcDbBlockEnd
  0
BLOCK
  5
84
100
AcDbEntity
  8
0
100
AcDbBlockBegin
  2
_CLOSEDFILLED
 70
0
 10
0
 20
0
 30
0
  3
_CLOSEDFILLED
  1

  0
SOLID
  5
82
100
AcDbEntity
  8
0
370
-2
 62
0
  6
BYLAYER
100
AcDbTrace
 10
-1
 20
0.166666666666667
 30
0
 11
0
 21
0
 31
0
 12
-1
 22
0.166666666666667
 32
0
 13
-1
 23
-0.166666666666667
 33
0
  0
LINE
  5
83
100
AcDbEntity
  8
0
370
-2
 62
0
  6
BYLAYER
100
AcDbLine
 10
-1
 20
0
 30
0
 11
-2
 21
0
 31
0
  0
ENDBLK
  5
2BA
100
AcDbEntity
  8
0
100
AcDbBlockEnd
  0
BLOCK
  5
120
100
AcDbEntity
  8
0
100
AcDbBlockBegin
  2
ABViewer_RedLine
 70
0
 10
0
 20
0
 30
0
  3
ABViewer_RedLine
  1

  0
ENDBLK
  5
2BB
100
AcDbEntity
  8
0
100
AcDbBlockEnd
  0
BLOCK
  5
2AE
100
AcDbEntity
  8
0
100
AcDbBlockBegin
  2
ABViewer
 70
0
 10
0
 20
0
 30
0
  3
ABViewer
  1

  0
MTEXT
  5
2A9
100
AcDbEntity
  8
0
370
-1
 62
1
100
AcDbMText
 10
0
 20
0
 30
0
 40
0.05
  1
ABViewer 16 trial version - www.cadsofttools.com
 50
0
 41
0
  7
Standard
 71
1
 73
1
 44
1
  0
ENDBLK
  5
2BC
100
AcDbEntity
  8
0
100
AcDbBlockEnd
  0
ENDSEC
  0
SECTION
  2
ENTITIES
  0
ELLIPSE
  5
73
100
AcDbEntity
  8
0
370
-1
 62
7
  6
CONTINUOUS
100
AcDbEllipse
 10
216.7264812156
 20
-0.0249121295
 30
0
 11
3.75320904172443
 21
220.007581687599
 31
0
 40
0.8307343972
 41
3.17726670194283
 42
6.28857626312266
  0
LINE
  5
74
100
AcDbEntity
  8
0
370
-1
 62
7
  6
CONTINUOUS
100
AcDbLine
 10
19.4943469792
 20
-220.0037189218
 30
0
 11
219.4943469792
 21
-220.0037189218
 31
0
  0
LINE
  5
75
100
AcDbEntity
  8
0
370
-1
 62
7
  6
CONTINUOUS
100
AcDbLine
 10
-210.5056530208
 20
-140.0037189218
 30
0
 11
-210.5056530208
 21
139.9962810782
 31
0
  0
LINE
  5
76
100
AcDbEntity
  8
0
370
-1
 62
7
  6
CONTINUOUS
100
AcDbLine
 10
19.4943469792
 20
219.9962810782
 30
0
 11
219.4943469792
 21
219.9962810782
 31
0
  0
LINE
  5
77
100
AcDbEntity
  8
0
370
-1
 62
7
  6
CONTINUOUS
100
AcDbLine
 10
-210.5056530208
 20
-140.0037189218
 30
0
 11
19.4943469792
 21
-140.0037189218
 31
0
  0
LINE
  5
78
100
AcDbEntity
  8
0
370
-1
 62
7
  6
CONTINUOUS
100
AcDbLine
 10
19.4943469792
 20
-220.0037189218
 30
0
 11
19.4943469792
 21
-140.0037189218
 31
0
  0
LINE
  5
79
100
AcDbEntity
  8
0
370
-1
 62
7
  6
CONTINUOUS
100
AcDbLine
 10
-210.5056530208
 20
139.9962810782
 30
0
 11
19.4943469792
 21
139.9962810782
 31
0
  0
LINE
  5
7A
100
AcDbEntity
  8
0
370
-1
 62
7
  6
CONTINUOUS
100
AcDbLine
 10
19.4943469792
 20
219.9962810782
 30
0
 11
19.4943469792
 21
139.9962810782
 31
0
  0
LWPOLYLINE
  5
7B
100
AcDbEntity
  8
0
370
-1
 62
7
  6
CONTINUOUS
100
AcDbPolyline
 38
0
 90
128
 70
128
 10
202.6097774506
 20
158.3297895238
 10
215.5045888433
 20
157.8130415938
 10
225.6174719429
 20
157.1161339569
 10
233.3167445722
 20
156.2878015729
 10
238.9706762866
 20
155.3767794014
 10
243.9641257631
 20
154.1176878781
 10
246.8490502861
 20
152.9137521211
 10
248.4983850978
 20
151.8804920347
 10
252.6020192512
 20
150.3557550086
 10
260.7337599613
 20
147.2209552188
 10
272.4564506025
 20
141.2204313128
 10
286.1437098887
 20
133.0126723032
 10
300.1673709537
 20
123.2593370472
 10
312.9187209103
 20
112.6178077636
 10
323.5765774403
 20
101.5723409825
 10
335.4159865272
 20
85.912647333
 10
344.3831745305
 20
70.6137492609
 10
351.0886747602
 20
55.6492173082
 10
355.770888349
 20
39.65440054
 10
358.6010848489
 20
21.3237006463
 10
359.5480572042
 20
1.2040266234
 10
358.4774813828
 20
-19.2142704539
 10
355.2605344989
 20
-38.5281759008
 10
349.8382202065
 20
-56.3823855631
 10
342.194919738
 20
-73.0724530497
 10
332.3165337222
 20
-88.901906939
 10
320.3153552162
 20
-103.9122519386
 10
306.561575846
 20
-117.6103437894
 10
291.4568292677
 20
-129.4378558276
 10
275.3956533802
 20
-138.8445881266
 10
258.3628750823
 20
-145.7495808278
 10
239.7213985096
 20
-150.7871514981
 10
219.2639480001
 20
-154.4535444979
 10
197.7148709263
 20
-156.8617370626
 10
175.8661035351
 20
-158.1263439591
 10
154.3054569903
 20
-158.6014322375
 10
133.5569718447
 20
-158.7091565923
 10
114.1990428751
 20
-158.6991022699
 10
96.8541569832
 20
-158.6809317866
 10
82.1460712204
 20
-158.7602769441
 10
77.6710831855
 20
-158.8286858843
 10
72.3144080953
 20
-158.8876262722
 10
64.5754574312
 20
-158.8615799129
 10
55.7360318166
 20
-158.624680418
 10
48.60182786
 20
-158.1324297629
 10
43.3765016202
 20
-157.2819198209
 10
40.7305140448
 20
-156.3474409213
 10
39.0364514475
 20
-155.1931772681
 10
37.5081339926
 20
-152.892574983
 10
36.3188424811
 20
-150.1104915914
 10
33.4917896026
 20
-144.7465520182
 10
31.6707035937
 20
-138.542996185
 10
31.3622559434
 20
-131.1045291865
 10
30.0908476469
 20
-120.2240829657
 10
28.9347118322
 20
-109.5584298322
 10
29.7894019669
 20
-99.133522927
 10
33.593156674
 20
-89.0918053387
 10
38.6198761393
 20
-79.7622444242
 10
42.9784277508
 20
-70.4707401484
 10
45.1988333999
 20
-60.2774472682
 10
45.5354299411
 20
-54.7684390573
 10
45.4724367245
 20
-49.2104071306
 10
45.1205288221
 20
-43.7088007107
 10
44.5901737127
 20
-38.3666139953
 10
43.901809638
 20
-32.222146028
 10
42.9453044399
 20
-22.8092860421
 10
42.1355828575
 20
-13.9888156708
 10
41.4243789349
 20
-5.1599476284
 10
40.9489338324
 20
2.5357968228
 10
40.844891065
 20
7.9730281283
 10
41.1231693039
 20
11.2857253931
 10
41.5913625427
 20
14.6206577881
 10
42.4128306432
 20
21.1196282324
 10
43.2608708518
 20
29.1649022487
 10
43.9931074796
 20
38.3501123795
 10
44.4671648373
 20
48.2688911672
 10
44.5406673958
 20
58.5148710688
 10
45.9150124323
 20
67.7029723693
 10
52.1127707701
 20
74.8519720979
 10
54.9380499204
 20
78.6765092422
 10
57.7104981529
 20
82.2287639886
 10
60.5654012844
 20
84.5919446532
 10
62.0660502552
 20
85.0411348036
 10
62.827303532
 20
85.1138614442
 10
63.5039850222
 20
85.5878531514
 10
64.2367916011
 20
88.3549072236
 10
64.62212658
 20
90.8476291867
 10
64.7613895058
 20
91.3767883726
 10
64.8846704047
 20
91.6045657635
 10
65.0250414521
 20
91.6289521205
 10
65.150244232
 20
91.4827608873
 10
65.5005339704
 20
90.625983242
 10
65.6102453372
 20
90.4572979144
 10
65.7065963423
 20
90.4074008236
 10
65.8132753384
 20
90.457697855
 10
65.9044005356
 20
90.5702437348
 10
66.628531853
 20
92.3829475292
 10
67.2877901776
 20
94.184815523
 10
68.4670808152
 20
96.7633471229
 10
70.2936271322
 20
103.7090550006
 10
70.5159465709
 20
111.5727738114
 10
70.3055241274
 20
115.292831927
 10
69.9848173892
 20
119.0579097542
 10
69.3172906458
 20
124.8741805499
 10
66.9995238436
 20
133.9368936073
 10
65.3781834826
 20
137.0294818368
 10
63.3343513757
 20
139.622890425
 10
62.3444571431
 20
142.3266740174
 10
62.8182122776
 20
145.3466685894
 10
64.6032952251
 20
146.5969882794
 10
65.6681845447
 20
146.0257248521
 10
66.9033293304
 20
144.3370505035
 10
68.5923677787
 20
143.3082533549
 10
72.2234417946
 20
144.0447562537
 10
75.4558656737
 20
146.1623219259
 10
78.1036492571
 20
148.821722145
 10
81.8159684568
 20
153.2909454608
 10
85.0806763749
 20
155.973432477
 10
89.7757116757
 20
157.5781263936
 10
96.1499697679
 20
158.5641580626
 10
101.1856380242
 20
158.9646313967
 10
107.4475091519
 20
159.4823333914
 10
116.9912825121
 20
160.2230804312
 10
125.6879190134
 20
160.0021960402
 10
155.9995623836
 20
159.1222601293
 10
173.0847884358
 20
158.8477275195
 10
188.7997437263
 20
158.6210970052
 10
202.6098257184
 20
158.3297895238
  0
INSERT
  5
2BD
100
AcDbEntity
  8
0
370
-1
100
AcDbBlockReference
  6
BYLAYER
  2
ABViewer
 10
196.186702131984
 20
-215.948125588499
 30
0
 41
93.8520819583348
 42
93.8520819583348
 43
1
  0
ENDSEC
  0
SECTION
  2
OBJECTS
  0
DICTIONARY
  5
2BE
100
AcDbDictionary
  3
ACAD_GROUP
350
2BF
  3
ACAD_MATERIAL
350
2C0
  3
ACAD_WIPEOUT_VARS
350
2C1
  3
ACAD_MLINESTYLE
350
2C2
  3
ACAD_IMAGE_VARS
350
2C3
  3
AcDbVariableDictionary
350
2C4
  3
ACAD_LAYOUT
350
2C5
  0
DICTIONARY
  5
2BF
330
2BE
100
AcDbDictionary
  0
DICTIONARY
  5
2C0
330
2BE
100
AcDbDictionary
  0
WIPEOUTVARIABLES
  5
2C1
330
2BE
100
AcDbWipeoutVariables
 70
1
  0
DICTIONARY
  5
2C2
330
2BE
100
AcDbDictionary
  3
Standard
350
18
  0
MLINESTYLE
  5
18
330
2C2
100
AcDbMlineStyle
  2
Standard
 70
0
  3

 62
256
 51
90
 52
90
 71
2
 49
0.5
 62
256
  6
BYLAYER
 49
-0.5
 62
256
  6
BYLAYER
  0
DICTIONARY
  5
2C5
100
AcDbDictionary
281
1
  3
Model
350
22
  0
LAYOUT
  5
22
102
{ACAD_REACTORS
330
2C5
102
}
330
2C5
100
AcDbPlotSettings
  1

  2
none_device
  4
ANSI_A_(11.00_x_8.50_Inches)
  6

 40
6.35
 41
19.05
 42
6.35000508
 43
19.05000254
 44
279.4
 45
215.9
 46
90.4952741417
 47
88.9016849777
 48
0
 49
0
 70
1696
 72
0
 73
0
 74
0
 75
0
 76
0
 77
0
 78
100
140
0
141
0
142
0.0178513314
143
1
147
0.0179189148
148
-1300.4909072572
149
0
100
AcDbLayout
  1
Model
 70
1
 71
1
 10
-210.5056530208
 20
-225.333333784333
 11
399.532879708376
 21
219.9962810782
 12
0
 22
0
 32
0
 14
-210.5056530208
 24
-225.333333784333
 34
0
 15
399.532879708376
 25
219.9962810782
 35
0
146
0
 13
0
 23
0
 33
0
 16
1
 26
0
 36
0
 17
0
 27
1
 37
0
 76
0
330
1F
  0
RASTERVARIABLES
  5
2C3
330
2BE
100
AcDbRasterVariables
 90
0
 70
1
 71
0
 72
0
  0
DICTIONARY
  5
2C4
100
AcDbDictionary
281
1
  3
XCLIPFRAME
350
2C6
  0
DICTIONARYVAR
  5
2C6
330
2C4
100
DictionaryVariables
280
0
  1
1
  0
DICTIONARY
  5
15D
330
11A
100
AcDbDictionary
280
1
281
0
  3
XINFO
360
15E
  0
XRECORD
  5
15E
102
{ACAD_REACTORS
330
15D
102
}
330
15D
100
AcDbXrecord
280
0
310
0400000000001000
311
92F07859C557B5BC
312
F62F64BA018156E7
  0
DICTIONARY
  5
2C7
100
AcDbDictionary
280
1
  3
XINFO
360
2C8
  0
XRECORD
  5
2C8
102
{ACAD_REACTORS
330
2C7
102
}
330
2C7
100
AcDbXrecord
280
0
310
0400000000001000
311
27B105C35698169C
  0
ENDSEC
  0
EOF
