999
The file was created in CADSoftTools software
999
ABViewer 16; 
  0
SECTION
  2
HEADER
  9
$ACADVER
  1
AC1018
  9
$DWGCODEPAGE
  3
ANSI_1252
  9
$CLAYER
  8
0
  9
$CELTYPE
  6
ByLayer
  9
$CELTSCALE
 40
1
  9
$CELWEIGHT
370
-1
  9
$DIMALT
 70
0
  9
$DIMALTF
 40
0.0393700787
  9
$DIMPOST
  1

  9
$DIMAPOST
  1

  9
$DIMSCALE
 40
1
  9
$DIMASZ
 40
3.556
  9
$DIMCLRD
 70
0
  9
$DIMCLRE
 70
0
  9
$DIMCLRT
 70
0
  9
$DIMEXE
 40
1
  9
$DIMEXO
 40
0
  9
$DIMGAP
 40
1.524
  9
$DIMLFAC
 40
1
  9
$DIMDEC
 70
2
  9
$DIMFRAC
 70
0
  9
$DIMTAD
 70
1
  9
$DIMCEN
 40
0.09
  9
$DIMTIH
 70
1
  9
$DIMTIX
 70
0
  9
$DIMTOH
 70
1
  9
$DIMSE1
 70
0
  9
$DIMSE2
 70
0
  9
$DIMSD1
 70
0
  9
$DIMSD2
 70
0
  9
$DIMLWD
 70
-2
  9
$DIMLWE
 70
-2
  9
$DIMSAH
 70
0
  9
$DIMBLK
  1

  9
$DIMBLK1
  1

  9
$DIMBLK2
  1

  9
$DIMLDRBLK
  1

  9
$DIMSTYLE
  2
ISO-25
  9
$DIMTP
 40
0
  9
$DIMTM
 40
0
  9
$DIMTXT
 40
3.5
  9
$DIMLUNIT
 70
2
  9
$DIMDSEP
 70
44
  9
$DIMTXSTY
  7
Standard
  9
$TEXTSIZE
 40
3.5
  9
$TEXTSTYLE
  7
Standard
  9
$HANDSEED
  5
000000000000012D
  9
$FILLETRAD
 40
10
  9
$INSUNITS
 70
4
  9
$EXTMIN
 10
-115
 20
-112.945592289136
  9
$EXTMAX
 10
115
 20
85
  9
$LIMMIN
 10
0
 20
0
  9
$LIMMAX
 10
420
 20
297
  9
$FILLMODE
 70
1
  9
$LTSCALE
 40
1
  9
$MEASUREMENT
 70
1
  9
$ATTMODE
 70
1
  9
$PDMODE
 70
0
  9
$PDSIZE
 40
-1
  9
$TILEMODE
 70
1
  9
$UCSORG
 10
0
 20
0
 30
0
  9
$UCSXDIR
 10
1
 20
0
 30
0
  9
$UCSYDIR
 10
0
 20
1
 30
0
  9
$INSBASE
 10
0
 20
0
 30
0
  9
$XCLIPFRAME
290
1
  9
$DIMASSOC
280
2
  9
$LWDISPLAY
290
1
  9
$TDCREATE
 40
2461082.39663449
  9
$TDINDWG
 40
1.15740740740741E-8
  9
$TDUPDATE
 40
2461082.56846325
  0
ENDSEC
  0
SECTION
  2
CLASSES
  0
CLASS
  1
IMAGE
  2
AcDbRasterImage
  3
ISM
 90
2175
 91
1
280
0
281
1
  0
CLASS
  1
IMAGEDEF
  2
AcDbRasterImageDef
  3
ISM
 90
0
 91
1
280
0
281
0
  0
CLASS
  1
IMAGEDEF_REACTOR
  2
AcDbRasterImageDefReactor
  3
ISM
 90
1
 91
1
280
0
281
0
  0
CLASS
  1
WIPEOUT
  2
AcDbWipeout
  3
"WipeOut"
 90
2175
 91
1
280
0
281
1
  0
CLASS
  1
WIPEOUTVARIABLES
  2
AcDbWipeoutVariables
  3
"WipeOut"
 90
0
 91
1
280
0
281
0
  0
CLASS
  1
MPOLYGON
  2
AcDbMPolygon
  3
"AcMPolygonObj15"
 90
3071
 91
1
280
0
281
1
  0
ENDSEC
  0
SECTION
  2
TABLES
  0
TABLE
  2
APPID
  5
114
100
AcDbSymbolTable
  0
APPID
  5
12
100
AcDbSymbolTableRecord
100
AcDbRegAppTableRecord
  2
ACAD
 70
0
  0
APPID
  5
AD
100
AcDbSymbolTableRecord
100
AcDbRegAppTableRecord
  2
CSTINVENTORY
 70
0
  0
APPID
  5
DD
100
AcDbSymbolTableRecord
100
AcDbRegAppTableRecord
  2
AcDbAttr
 70
0
  0
APPID
  5
DE
100
AcDbSymbolTableRecord
100
AcDbRegAppTableRecord
  2
PE_URL
 70
0
  0
ENDTAB
  0
TABLE
  2
BLOCK_RECORD
  5
115
100
AcDbSymbolTable
  0
BLOCK_RECORD
  5
1F
100
AcDbSymbolTableRecord
100
AcDbBlockTableRecord
  2
*MODEL_SPACE
  0
BLOCK_RECORD
  5
1B
100
AcDbSymbolTableRecord
100
AcDbBlockTableRecord
  2
*PAPER_SPACE
  0
BLOCK_RECORD
  5
98
100
AcDbSymbolTableRecord
100
AcDbBlockTableRecord
  2
_CLOSEDFILLED
  0
BLOCK_RECORD
  5
B4
100
AcDbSymbolTableRecord
100
AcDbBlockTableRecord
  2
ABViewer_RedLine
  0
BLOCK_RECORD
  5
113
100
AcDbSymbolTableRecord
100
AcDbBlockTableRecord
  2
ABViewer
  0
ENDTAB
  0
TABLE
  2
STYLE
  5
3
100
AcDbSymbolTable
  0
STYLE
  5
11
100
AcDbSymbolTableRecord
100
AcDbTextStyleTableRecord
  2
Standard
 70
0
 40
0
 41
1
 50
0
 71
0
 42
3.5
  3
txt
  4

1001
ACAD
1000

1071
0
  0
STYLE
  5
90
100
AcDbSymbolTableRecord
100
AcDbTextStyleTableRecord
  2
SLDTEXTSTYLE0
 70
0
 40
0
 41
0.699999988079071
 50
0
 71
0
 42
3.5
  3
TXT
  4

1001
ACAD
1000

1071
0
  0
ENDTAB
  0
TABLE
  2
LTYPE
  5
5
100
AcDbSymbolTable
  0
LTYPE
  5
16
100
AcDbSymbolTableRecord
100
AcDbLinetypeTableRecord
  2
CONTINUOUS
 70
0
  3

 72
65
 73
0
 40
0
  0
LTYPE
  5
14
100
AcDbSymbolTableRecord
100
AcDbLinetypeTableRecord
  2
BYBLOCK
 70
0
  3

 72
65
 73
0
 40
0
  0
LTYPE
  5
15
100
AcDbSymbolTableRecord
100
AcDbLinetypeTableRecord
  2
BYLAYER
 70
0
  3

 72
65
 73
0
 40
0
  0
LTYPE
  5
6E
100
AcDbSymbolTableRecord
100
AcDbLinetypeTableRecord
  2
HIDDEN
 70
0
  3
_ 
 72
65
 73
2
 40
1.905
 49
1.27
 74
0
 49
-0.635
 74
0
  0
LTYPE
  5
6F
100
AcDbSymbolTableRecord
100
AcDbLinetypeTableRecord
  2
PHANTOM
 70
0
  3
_ _ _ 
 72
65
 73
6
 40
12.7
 49
6.35
 74
0
 49
-1.27
 74
0
 49
1.27
 74
0
 49
-1.27
 74
0
 49
1.27
 74
0
 49
-1.27
 74
0
  0
LTYPE
  5
70
100
AcDbSymbolTableRecord
100
AcDbLinetypeTableRecord
  2
CENTER
 70
0
  3
_ _ 
 72
65
 73
4
 40
10.16
 49
6.35
 74
0
 49
-1.27
 74
0
 49
1.27
 74
0
 49
-1.27
 74
0
  0
LTYPE
  5
71
100
AcDbSymbolTableRecord
100
AcDbLinetypeTableRecord
  2
CENTERX2
 70
0
  3
_ _ 
 72
65
 73
4
 40
20.32
 49
12.7
 74
0
 49
-2.54
 74
0
 49
2.54
 74
0
 49
-2.54
 74
0
  0
LTYPE
  5
72
100
AcDbSymbolTableRecord
100
AcDbLinetypeTableRecord
  2
DOT2
 70
0
  3
. 
 72
65
 73
2
 40
0.635
 49
0
 74
0
 49
-0.635
 74
0
  0
LTYPE
  5
B5
100
AcDbSymbolTableRecord
100
AcDbLinetypeTableRecord
  2
ISO dash
 70
0
  3
_ 
 72
65
 73
2
 40
1.5
 49
1.2
 74
0
 49
-0.3
 74
0
  0
LTYPE
  5
B6
100
AcDbSymbolTableRecord
100
AcDbLinetypeTableRecord
  2
ISO dot
 70
0
  3
. 
 72
65
 73
2
 40
0.3
 49
0
 74
0
 49
-0.3
 74
0
  0
LTYPE
  5
B7
100
AcDbSymbolTableRecord
100
AcDbLinetypeTableRecord
  2
ISO dash dot
 70
0
  3
_ . 
 72
65
 73
4
 40
1.8
 49
1.2
 74
0
 49
-0.3
 74
0
 49
0
 74
0
 49
-0.3
 74
0
  0
LTYPE
  5
B8
100
AcDbSymbolTableRecord
100
AcDbLinetypeTableRecord
  2
ISO dash double-dot
 70
0
  3
_ . . 
 72
65
 73
6
 40
2.1
 49
1.2
 74
0
 49
-0.3
 74
0
 49
0
 74
0
 49
-0.3
 74
0
 49
0
 74
0
 49
-0.3
 74
0
  0
LTYPE
  5
B9
100
AcDbSymbolTableRecord
100
AcDbLinetypeTableRecord
  2
ISO dash triple-dot
 70
0
  3
_ . . . 
 72
65
 73
8
 40
2.4
 49
1.2
 74
0
 49
-0.3
 74
0
 49
0
 74
0
 49
-0.3
 74
0
 49
0
 74
0
 49
-0.3
 74
0
 49
0
 74
0
 49
-0.3
 74
0
  0
LTYPE
  5
BA
100
AcDbSymbolTableRecord
100
AcDbLinetypeTableRecord
  2
ISO dash long gaps
 70
0
  3
_ 
 72
65
 73
2
 40
3
 49
1.2
 74
0
 49
-1.8
 74
0
  0
ENDTAB
  0
TABLE
  2
LAYER
  5
2
100
AcDbSymbolTable
  0
LAYER
  5
10
100
AcDbSymbolTableRecord
100
AcDbLayerTableRecord
  2
0
 70
0
 62
7
  6
CONTINUOUS
290
1
370
-3
390
0
  0
ENDTAB
  0
TABLE
  2
VPORT
  5
116
100
AcDbSymbolTable
  0
VPORT
  5
117
100
AcDbSymbolTableRecord
100
AcDbViewportTableRecord
  2
*ACTIVE
 70
0
 10
0
 20
0
 11
1
 21
1
 12
123.083681343126
 22
20.6171665051311
 32
0
 13
0
 23
0
 14
10
 24
10
 15
10
 25
10
 16
0
 26
0
 36
1
 17
0
 27
0
 37
0
 40
368.554599629726
 41
2.43410852713178
 42
50
 43
0
 44
0
 50
0
 51
0
 71
0
 72
100
 73
1
 74
3
 75
0
 76
0
 77
0
 78
0
  0
ENDTAB
  0
TABLE
  2
VIEW
  5
118
100
AcDbSymbolTable
  0
ENDTAB
  0
TABLE
  2
UCS
  5
119
100
AcDbSymbolTable
  0
ENDTAB
  0
TABLE
  2
DIMSTYLE
  5
A
100
AcDbSymbolTable
 70
2
100
AcDbDimStyleTable
 71
0
  0
DIMSTYLE
105
27
100
AcDbSymbolTableRecord
100
AcDbDimStyleTableRecord
  2
ISO-25
 70
0
  3

 40
1
 41
2.5
 42
0.625
 44
1.25
 47
0
 48
0
 73
0
 74
0
 75
0
 76
0
 77
1
140
2.5
141
2.5
144
1
147
0.625
173
0
174
0
176
0
177
0
178
0
277
2
278
44
281
0
282
0
271
2
276
0
340
11
371
-1
372
-1
  0
DIMSTYLE
105
AC
100
AcDbSymbolTableRecord
100
AcDbDimStyleTableRecord
  2
STANDARD
 70
0
  3

 40
1
 41
0.18
 42
0.0625
 44
0.18
 47
0
 48
0
 73
1
 74
1
 75
0
 76
0
 77
0
140
0.18
141
0.09
144
1
147
0.0625
173
0
174
0
176
0
177
0
178
0
277
2
278
46
281
0
282
0
271
4
276
0
371
-1
372
-1
  0
ENDTAB
  0
ENDSEC
  0
SECTION
  2
BLOCKS
  0
BLOCK
  5
11A
100
AcDbEntity
  8
0
100
AcDbBlockBegin
  2
*MODEL_SPACE
 70
0
 10
0
 20
0
  0
ENDBLK
  5
11B
100
AcDbEntity
  8
0
100
AcDbBlockEnd
  0
BLOCK
  5
11C
100
AcDbEntity
  8
0
100
AcDbBlockBegin
  2
*PAPER_SPACE
 70
0
 10
0
 20
0
  0
ENDBLK
  5
11D
100
AcDbEntity
  8
0
100
AcDbBlockEnd
  0
BLOCK
  5
97
100
AcDbEntity
  8
0
100
AcDbBlockBegin
  2
_CLOSEDFILLED
 70
0
 10
0
 20
0
 30
0
  3
_CLOSEDFILLED
  1

  0
SOLID
  5
95
100
AcDbEntity
  8
0
370
-2
 62
0
  6
BYLAYER
100
AcDbTrace
 10
-1
 20
0.166666666666667
 30
0
 11
0
 21
0
 31
0
 12
-1
 22
0.166666666666667
 32
0
 13
-1
 23
-0.166666666666667
 33
0
  0
LINE
  5
96
100
AcDbEntity
  8
0
370
-2
 62
0
  6
BYLAYER
100
AcDbLine
 10
-1
 20
0
 30
0
 11
-2
 21
0
 31
0
  0
ENDBLK
  5
11E
100
AcDbEntity
  8
0
100
AcDbBlockEnd
  0
BLOCK
  5
B3
100
AcDbEntity
  8
0
100
AcDbBlockBegin
  2
ABViewer_RedLine
 70
0
 10
0
 20
0
 30
0
  3
ABViewer_RedLine
  1

  0
ENDBLK
  5
11F
100
AcDbEntity
  8
0
100
AcDbBlockEnd
  0
BLOCK
  5
112
100
AcDbEntity
  8
0
100
AcDbBlockBegin
  2
ABViewer
 70
0
 10
0
 20
0
 30
0
  3
ABViewer
  1

  0
MTEXT
  5
10D
100
AcDbEntity
  8
0
370
-1
 62
1
100
AcDbMText
 10
0
 20
0
 30
0
 40
0.05
  1
ABViewer 16 trial version - www.cadsofttools.com
 50
0
 41
0
  7
Standard
 71
1
 73
1
 44
1
  0
ENDBLK
  5
120
100
AcDbEntity
  8
0
100
AcDbBlockEnd
  0
ENDSEC
  0
SECTION
  2
ENTITIES
  0
ARC
  5
73
100
AcDbEntity
  8
0
370
-1
 62
7
  6
CONTINUOUS
100
AcDbCircle
 10
43.5041689113
 20
-28.1250365342
 30
0
 40
10
100
AcDbArc
 50
339.258376118
 51
0
  0
ARC
  5
74
100
AcDbEntity
  8
0
370
-1
 62
7
  6
CONTINUOUS
100
AcDbCircle
 10
-59.8469882271
 20
29.9407896999
 30
0
 40
3.66398215770049
100
AcDbArc
 50
223.7021697059
 51
34.5560884961
  0
ARC
  5
75
100
AcDbEntity
  8
0
370
-1
 62
7
  6
CONTINUOUS
100
AcDbCircle
 10
51.410340507
 20
22.1977510928
 30
0
 40
5.16719957574774
100
AcDbArc
 50
171.6962061
 51
293.9046205948
  0
ARC
  5
76
100
AcDbEntity
  8
0
370
-1
 62
7
  6
CONTINUOUS
100
AcDbCircle
 10
-59.4617651564
 20
-86.8414136364
 30
0
 40
4.71956689183324
100
AcDbArc
 50
354.5687728778
 51
96.2971503797
  0
ARC
  5
77
100
AcDbEntity
  8
0
370
-1
 62
7
  6
CONTINUOUS
100
AcDbCircle
 10
30.7457931779
 20
-79.5541541519
 30
0
 40
4.54305799221998
100
AcDbArc
 50
90
 51
183.0420571882
  0
ARC
  5
78
100
AcDbEntity
  8
0
370
-1
 62
7
  6
CONTINUOUS
100
AcDbCircle
 10
24.7453577729
 20
-84.8865171949
 30
0
 40
1.63192210694625
100
AcDbArc
 50
275.3053434927
 51
32.6695045529
  0
ARC
  5
79
100
AcDbEntity
  8
0
370
-1
 62
7
  6
CONTINUOUS
100
AcDbCircle
 10
34.4881461057
 20
-72.9041786687
 30
0
 40
2.57329098584094
100
AcDbArc
 50
305.0387644137
 51
338.3125328214
  0
ARC
  5
7A
100
AcDbEntity
  8
0
370
-1
 62
7
  6
CONTINUOUS
100
AcDbCircle
 10
44.2400224978
 20
22.3472929393
 30
0
 40
2.14208087719384
100
AcDbArc
 50
16.1747245938
 51
70.0600312848
  0
ARC
  5
7B
100
AcDbEntity
  8
0
370
-1
 62
7
  6
CONTINUOUS
100
AcDbCircle
 10
-60.3243026697
 20
-80.0085757915
 30
0
 40
2.13813909536749
100
AcDbArc
 50
205.2942369768
 51
279.2821048066
  0
ARC
  5
7C
100
AcDbEntity
  8
0
370
-1
 62
7
  6
CONTINUOUS
100
AcDbCircle
 10
-52.0705585197
 20
-87.2881248743
 30
0
 40
2.69282811674863
100
AcDbArc
 50
173.0827064893
 51
270
  0
LINE
  5
7D
100
AcDbEntity
  8
0
370
-1
 62
7
  6
CONTINUOUS
100
AcDbLine
 10
-62.4958310887
 20
27.4093085631
 30
0
 11
-62.4958310887
 21
-77.3163973109
 31
0
  0
LINE
  5
7E
100
AcDbEntity
  8
0
370
-1
 62
7
  6
CONTINUOUS
100
AcDbLine
 10
-115
 20
-100
 30
0
 11
115
 21
-100
 31
0
  0
LINE
  5
7F
100
AcDbEntity
  8
0
370
-1
 62
7
  6
CONTINUOUS
100
AcDbLine
 10
-115
 20
-100
 30
0
 11
-115
 21
85
 31
0
  0
LINE
  5
80
100
AcDbEntity
  8
0
370
-1
 62
7
  6
CONTINUOUS
100
AcDbLine
 10
-115
 20
85
 30
0
 11
115
 21
85
 31
0
  0
LINE
  5
81
100
AcDbEntity
  8
0
370
-1
 62
7
  6
CONTINUOUS
100
AcDbLine
 10
115
 20
-100
 30
0
 11
115
 21
85
 31
0
  0
LINE
  5
82
100
AcDbEntity
  8
0
370
-1
 62
7
  6
CONTINUOUS
100
AcDbLine
 10
-52.0705585197
 20
-89.980952991
 30
0
 11
-15.7839701547
 21
-89.980952991
 31
0
  0
LINE
  5
83
100
AcDbEntity
  8
0
370
-1
 62
7
  6
CONTINUOUS
100
AcDbLine
 10
-15.7839701547
 20
-89.980952991
 30
0
 11
24.7453577729
 21
-86.6314217574
 31
0
  0
LINE
  5
84
100
AcDbEntity
  8
0
370
-1
 62
7
  6
CONTINUOUS
100
AcDbLine
 10
36.8792826422
 20
-73.8551216542
 30
0
 11
52.8560388492
 21
-31.6665797944
 31
0
  0
LINE
  5
85
100
AcDbEntity
  8
0
370
-1
 62
7
  6
CONTINUOUS
100
AcDbLine
 10
53.5041689113
 20
17.4737872837
 30
0
 11
53.5041689113
 21
-28.1250365342
 31
0
  0
LINE
  5
86
100
AcDbEntity
  8
0
370
-1
 62
7
  6
CONTINUOUS
100
AcDbLine
 10
44.9705479042
 20
24.3609570411
 30
0
 11
-7.4013278716
 21
32.019047009
 31
0
  0
LINE
  5
87
100
AcDbEntity
  8
0
370
-1
 62
7
  6
CONTINUOUS
100
AcDbLine
 10
-7.4013278716
 20
32.019047009
 30
0
 11
-56.8294375963
 21
32.019047009
 31
0
  0
LINE
  5
88
100
AcDbEntity
  8
0
370
-1
 62
7
  6
CONTINUOUS
100
AcDbLine
 10
-62.4958310887
 20
-77.3163973109
 30
0
 11
-62.4958310887
 21
-80.5811843874
 31
0
  0
LINE
  5
89
100
AcDbEntity
  8
0
370
-1
 62
7
  6
CONTINUOUS
100
AcDbLine
 10
26.1191068707
 20
-84.0056181205
 30
0
 11
26.1191068707
 21
-79.5509084517
 31
0
  0
LINE
  5
8A
100
AcDbEntity
  8
0
370
-1
 62
7
  6
CONTINUOUS
100
AcDbLine
 10
30.7457931779
 20
-75.0110961597
 30
0
 11
35.9655509872
 21
-75.0110961597
 31
0
  0
LINE
  5
8B
100
AcDbEntity
  8
0
370
-1
 62
7
  6
CONTINUOUS
100
AcDbLine
 10
30.7457931779
 20
-75.0110961597
 30
0
 11
29.0461358765
 21
-75.3410150635
 31
0
  0
LINE
  5
8C
100
AcDbEntity
  8
0
370
-1
 62
7
  6
CONTINUOUS
100
AcDbLine
 10
26.1191068707
 20
-80.9961692039
 30
0
 11
26.2957921716
 21
-78.6393498207
 31
0
  0
LINE
  5
8D
100
AcDbEntity
  8
0
370
-1
 62
7
  6
CONTINUOUS
100
AcDbLine
 10
-62.4958310887
 20
-80.5811843874
 30
0
 11
-62.2574488132
 21
-80.9221319085
 31
0
  0
LINE
  5
8E
100
AcDbEntity
  8
0
370
-1
 62
7
  6
CONTINUOUS
100
AcDbLine
 10
-59.9794302659
 20
-82.1503226672
 30
0
 11
-59.9794302659
 21
-82.1187183972
 31
0
  0
INSERT
  5
121
100
AcDbEntity
  8
0
370
-1
100
AcDbBlockReference
  6
BYLAYER
  2
ABViewer
 10
38.3333333333333
 20
-109.407130750674
 30
0
 41
35.3846153846154
 42
35.3846153846154
 43
1
  0
ENDSEC
  0
SECTION
  2
OBJECTS
  0
DICTIONARY
  5
122
100
AcDbDictionary
  3
ACAD_GROUP
350
123
  3
ACAD_MATERIAL
350
124
  3
ACAD_WIPEOUT_VARS
350
125
  3
ACAD_MLINESTYLE
350
126
  3
ACAD_IMAGE_VARS
350
127
  3
AcDbVariableDictionary
350
128
  3
ACAD_LAYOUT
350
129
  0
DICTIONARY
  5
123
330
122
100
AcDbDictionary
  0
DICTIONARY
  5
124
330
122
100
AcDbDictionary
  0
WIPEOUTVARIABLES
  5
125
330
122
100
AcDbWipeoutVariables
 70
1
  0
DICTIONARY
  5
126
330
122
100
AcDbDictionary
  3
Standard
350
18
  0
MLINESTYLE
  5
18
330
126
100
AcDbMlineStyle
  2
Standard
 70
0
  3

 62
256
 51
90
 52
90
 71
2
 49
0.5
 62
256
  6
BYLAYER
 49
-0.5
 62
256
  6
BYLAYER
  0
DICTIONARY
  5
129
100
AcDbDictionary
281
1
  3
Model
350
22
  0
LAYOUT
  5
22
102
{ACAD_REACTORS
330
129
102
}
330
129
100
AcDbPlotSettings
  1

  2
none_device
  4
ANSI_A_(11.00_x_8.50_Inches)
  6

 40
6.35
 41
19.05
 42
6.35000508
 43
19.05000254
 44
279.4
 45
215.9
 46
133.34999746
 47
97.5651744057
 48
0
 49
0
 70
1696
 72
0
 73
0
 74
0
 75
0
 76
0
 77
0
 78
100
140
0
141
0
142
0.0454864865
143
1
147
0.0179189148
148
-1300.4909072572
149
0
100
AcDbLayout
  1
Model
 70
1
 71
1
 10
-115
 20
-112.945592289136
 11
115
 21
85
 12
0
 22
0
 32
0
 14
-115
 24
-112.945592289136
 34
0
 15
115
 25
85
 35
0
146
0
 13
0
 23
0
 33
0
 16
1
 26
0
 36
0
 17
0
 27
1
 37
0
 76
0
330
1F
  0
RASTERVARIABLES
  5
127
330
122
100
AcDbRasterVariables
 90
0
 70
1
 71
0
 72
0
  0
DICTIONARY
  5
128
100
AcDbDictionary
281
1
  3
XCLIPFRAME
350
12A
  0
DICTIONARYVAR
  5
12A
330
128
100
DictionaryVariables
280
0
  1
1
  0
DICTIONARY
  5
F4
330
AD
100
AcDbDictionary
280
1
281
0
  3
XINFO
360
F5
  0
XRECORD
  5
F5
102
{ACAD_REACTORS
330
F4
102
}
330
F4
100
AcDbXrecord
280
0
310
0400000000001000
311
2A614E609BCB87BB
312
2A614E609BCB87BB
  0
DICTIONARY
  5
12B
100
AcDbDictionary
280
1
  3
XINFO
360
12C
  0
XRECORD
  5
12C
102
{ACAD_REACTORS
330
12B
102
}
330
12B
100
AcDbXrecord
280
0
310
0400000000001000
311
8BF10C60F29D1A20
  0
ENDSEC
  0
EOF
